<svg width="28" height="28" fill="none"><path d="M27.334 6.344a1.075 1.075 0 00-.836-.4H6.988l-.08-.74-.003-.023C6.522 2.247 4.017.034 1.077.034A1.08 1.08 0 000 1.12a1.08 1.08 0 001.077 1.084c1.859 0 3.443 1.396 3.69 3.25l1.28 11.84a3.259 3.259 0 00-1.9 3.018c0 1.794 1.45 3.253 3.232 3.253h.438c-.11.323-.17.67-.17 1.03 0 1.764 1.426 3.199 3.178 3.199 1.753 0 3.178-1.435 3.178-3.199 0-.36-.06-.707-.169-1.03h4.647c-.11.323-.17.67-.17 1.03 0 1.764 1.426 3.199 3.178 3.199 1.753 0 3.178-1.435 3.178-3.199 0-1.764-1.425-3.199-3.178-3.199H7.38a1.082 1.082 0 01-1.08-1.138c0-.598.484-1.084 1.078-1.084H21.13c1.912 0 3.667-1.191 4.47-3.034a1.087 1.087 0 00-.553-1.429 1.075 1.075 0 00-1.419.557c-.453 1.039-1.457 1.737-2.498 1.737H8.183l-.961-8.891h17.951l-.527 2.543a1.084 1.084 0 001.056 1.306c.5 0 .947-.351 1.053-.863l.798-3.85a1.09 1.09 0 00-.219-.905zm-5.845 17.22c.565 0 1.024.462 1.024 1.03 0 .568-.46 1.03-1.024 1.03a1.028 1.028 0 01-1.023-1.03c0-.568.46-1.03 1.023-1.03zm-10.664 0c.565 0 1.024.462 1.024 1.03 0 .568-.46 1.03-1.024 1.03a1.028 1.028 0 01-1.023-1.03c0-.568.46-1.03 1.024-1.03z" fill="#171516"/></svg>