<svg width="30" height="30" fill="none" xmlns="http://www.w3.org/2000/svg"><path d="M14.998 10.054A4.957 4.957 0 0010.051 15a4.957 4.957 0 004.947 4.947A4.957 4.957 0 0019.945 15a4.957 4.957 0 00-4.947-4.946zM29.834 15c0-2.048.019-4.078-.096-6.123-.115-2.375-.657-4.483-2.394-6.22C25.604.918 23.5.38 21.124.265 19.077.15 17.047.168 15.003.168c-2.049 0-4.079-.019-6.123.096-2.375.115-4.483.657-6.22 2.394C.92 4.398.381 6.502.266 8.878.15 10.925.169 12.955.169 15s-.018 4.079.097 6.123c.115 2.375.656 4.483 2.393 6.22 1.74 1.74 3.845 2.279 6.22 2.393 2.048.116 4.078.097 6.123.097 2.048 0 4.078.019 6.123-.096 2.375-.115 4.483-.657 6.22-2.394 1.74-1.74 2.278-3.845 2.393-6.22.119-2.044.096-4.074.096-6.123zm-14.836 7.611a7.6 7.6 0 01-7.611-7.61 7.6 7.6 0 017.611-7.612A7.6 7.6 0 0122.609 15a7.6 7.6 0 01-7.611 7.611zm7.923-13.756a1.775 1.775 0 01-1.778-1.777c0-.984.794-1.778 1.778-1.778a1.775 1.775 0 011.643 2.458 1.777 1.777 0 01-1.643 1.097z" fill="#171516"/></svg>