<svg width="15" height="15" fill="none" xmlns="http://www.w3.org/2000/svg"><path d="M7.09 4.21a2.912 2.912 0 00-2.906 2.91 2.912 2.912 0 002.908 2.908A2.912 2.912 0 0010 7.12a2.912 2.912 0 00-2.909-2.91zm0 0a2.912 2.912 0 00-2.906 2.91 2.912 2.912 0 002.908 2.908A2.912 2.912 0 0010 7.12a2.912 2.912 0 00-2.909-2.91zM12.105 0H2.077C.931 0 0 .93 0 2.077v10.027c0 1.147.93 2.078 2.077 2.078h10.027c1.147 0 2.078-.93 2.078-2.078V2.077C14.182.931 13.252 0 12.104 0zM7.091 10.858a3.745 3.745 0 01-3.74-3.74c0-2.06 1.68-3.739 3.74-3.739 2.06 0 3.74 1.679 3.74 3.74 0 2.06-1.68 3.739-3.74 3.739zm4.57-7.479a.833.833 0 01-.83-.83c0-.458.373-.832.83-.832.457 0 .831.374.831.831a.833.833 0 01-.83.831zm-4.57.831a2.912 2.912 0 00-2.908 2.91 2.912 2.912 0 002.908 2.908A2.912 2.912 0 009.999 7.12a2.912 2.912 0 00-2.908-2.91zm0 0a2.912 2.912 0 00-2.908 2.91 2.912 2.912 0 002.908 2.908A2.912 2.912 0 009.999 7.12a2.912 2.912 0 00-2.908-2.91zm0 0a2.912 2.912 0 00-2.908 2.91 2.912 2.912 0 002.908 2.908A2.912 2.912 0 009.999 7.12a2.912 2.912 0 00-2.908-2.91z" fill="#fff"/></svg>