<svg width="28" height="28" fill="none" xmlns="http://www.w3.org/2000/svg"><path d="M7.585 11.667c-.26 0-.51.04-.759.075.08-.27.164-.546.297-.793.133-.36.34-.67.547-.985.173-.339.477-.569.701-.86.235-.282.554-.47.807-.704.249-.245.574-.368.833-.54.271-.155.507-.327.759-.409l.629-.259.553-.23-.566-2.26-.697.168c-.223.056-.494.121-.804.2-.316.057-.653.217-1.029.363-.37.166-.8.278-1.199.544-.401.254-.864.466-1.273.807-.395.351-.872.656-1.225 1.103-.385.417-.765.856-1.06 1.355-.342.476-.574.999-.82 1.516-.22.517-.4 1.045-.545 1.559a14.084 14.084 0 00-.448 2.843c-.04.837-.017 1.534.032 2.038a8.8 8.8 0 00.074.629l.03.196.03-.007a5.25 5.25 0 105.133-6.35zm12.833 0c-.26 0-.51.04-.758.075.08-.27.163-.546.296-.793.133-.36.34-.67.547-.985.173-.339.477-.569.701-.86.235-.282.555-.47.808-.704.248-.245.574-.368.833-.54.27-.155.506-.327.758-.409l.629-.259.553-.23-.566-2.26-.696.168c-.223.056-.495.121-.804.2-.316.057-.654.217-1.03.363-.37.167-.8.278-1.199.545-.4.254-.864.467-1.272.807-.396.351-.873.656-1.225 1.102-.385.417-.766.856-1.06 1.355-.343.476-.575.999-.82 1.516a12.87 12.87 0 00-.546 1.559 14.081 14.081 0 00-.448 2.843c-.04.837-.016 1.534.033 2.038.017.238.05.469.073.629l.03.196.03-.007a5.25 5.25 0 105.133-6.35z" fill="#ACA7AF"/></svg>