<svg width="20" height="12" fill="none" xmlns="http://www.w3.org/2000/svg"><path d="M19.822 10.725c-.054-.093-.386-.84-1.987-2.376-1.675-1.608-1.45-1.347.568-4.127 1.229-1.694 1.72-2.728 1.566-3.17-.146-.421-1.05-.31-1.05-.31L15.914.76s-.223-.031-.389.07c-.161.102-.265.334-.265.334s-.476 1.311-1.111 2.425c-1.339 2.352-1.875 2.476-2.094 2.33-.509-.34-.381-1.368-.381-2.097 0-2.279.333-3.229-.652-3.475-.327-.081-.567-.135-1.404-.144C8.546.19 7.638.207 7.123.466c-.342.174-.606.56-.445.582.199.027.65.125.888.462.309.433.297 1.407.297 1.407S8.041 5.6 7.45 5.933c-.407.229-.963-.238-2.157-2.372-.611-1.092-1.074-2.3-1.074-2.3s-.088-.226-.247-.346a1.23 1.23 0 00-.463-.193L.652.74S.222.753.065.946c-.14.172-.011.526-.011.526s2.238 5.412 4.77 8.141c2.324 2.502 4.962 2.337 4.962 2.337h1.195s.361-.041.545-.247c.17-.188.164-.542.164-.542s-.024-1.659.721-1.903c.734-.24 1.677 1.603 2.675 2.312.755.537 1.33.42 1.33.42l2.67-.04s1.398-.089.736-1.225z" fill="#fff"/></svg>